<svg xmlns="http://www.w3.org/2000/svg" viewBox="0 0 100 100" width="512" height="512">
  <ellipse cx="50" cy="32" rx="8.5" ry="13" fill="none" stroke="#17150F" stroke-width="1.8" transform="rotate(0 50 50)"></ellipse>
  <ellipse cx="50" cy="32" rx="8.5" ry="13" fill="none" stroke="#17150F" stroke-width="1.8" transform="rotate(60 50 50)"></ellipse>
  <ellipse cx="50" cy="32" rx="8.5" ry="13" fill="none" stroke="#17150F" stroke-width="1.8" transform="rotate(120 50 50)"></ellipse>
  <ellipse cx="50" cy="32" rx="8.5" ry="13" fill="none" stroke="#17150F" stroke-width="1.8" transform="rotate(180 50 50)"></ellipse>
  <ellipse cx="50" cy="32" rx="8.5" ry="13" fill="none" stroke="#17150F" stroke-width="1.8" transform="rotate(240 50 50)"></ellipse>
  <ellipse cx="50" cy="32" rx="8.5" ry="13" fill="none" stroke="#17150F" stroke-width="1.8" transform="rotate(300 50 50)"></ellipse>
  <circle cx="50.000" cy="32.000" r="2.5" fill="#17150F"></circle>
  <circle cx="65.588" cy="41.000" r="2.5" fill="#17150F"></circle>
  <circle cx="65.588" cy="59.000" r="2.5" fill="#17150F"></circle>
  <circle cx="50.000" cy="68.000" r="2.5" fill="#17150F"></circle>
  <circle cx="34.412" cy="59.000" r="2.5" fill="#17150F"></circle>
  <circle cx="34.412" cy="41.000" r="2.5" fill="#17150F"></circle>
  <circle cx="50" cy="50" r="4" fill="#FFD43B"></circle>
</svg>